<svg version="1" id="Layer_1" xmlns="http://www.w3.org/2000/svg" viewBox="0 0 60 60"><style>.st0{fill:url(#SVGID_1_);} .st1{fill:url(#SVGID_2_);} .st2{fill:url(#SVGID_3_);} .st3{fill:url(#SVGID_4_);} .st4{fill:url(#SVGID_5_);} .st5{fill:#0F0E0D;} .st6{fill:#ED1C24;} .st7{opacity:0.8;fill:url(#SVGID_6_);}</style><linearGradient id="SVGID_1_" gradientUnits="userSpaceOnUse" x1="30" y1="-.833" x2="30" y2="60.298"><stop offset="0" stop-color="#7AA109"/><stop offset="1" stop-color="#4B7A00"/></linearGradient><path class="st0" d="M58 60H2c-1.1 0-2-.9-2-2V2C0 .9.9 0 2 0h56c1.1 0 2 .9 2 2v56c0 1.1-.9 2-2 2z"/><radialGradient id="SVGID_2_" cx="30" cy="30" r="24.356" gradientUnits="userSpaceOnUse"><stop offset="0"/><stop offset="1" stop-opacity="0"/></radialGradient><path class="st1" d="M27 55.7v-4.4C14.4 51 4.3 40.6 4.3 27.9V27h4.4C9 14.4 19.4 4.3 32.1 4.3h.9v4.4c12.6.3 22.7 10.7 22.7 23.4v.9h-4.4C51 45.6 40.6 55.7 27.9 55.7H27z"/><radialGradient id="SVGID_3_" cx="29.294" cy="16.18" r="38.844" gradientUnits="userSpaceOnUse"><stop offset="0" stop-color="#D8DFB2"/><stop offset=".237" stop-color="#C6D191"/><stop offset=".574" stop-color="#AEC068"/><stop offset=".84" stop-color="#A0B54E"/><stop offset="1" stop-color="#9BB145"/></radialGradient><path class="st2" d="M50.4 32.1v.2c0 12.4-10.1 22.5-22.5 22.5v-4.4h-.2c-12.4 0-22.5-10.1-22.5-22.5h4.4v-.2c0-12.4 10.1-22.5 22.5-22.5v4.4h.2c12.4 0 22.5 10.1 22.5 22.5h-4.4z"/><linearGradient id="SVGID_4_" gradientUnits="userSpaceOnUse" x1="30" y1="14.422" x2="30" y2="47.738"><stop offset="0" stop-color="#A5AD5F"/><stop offset="1" stop-color="#CCD0A4"/></linearGradient><circle class="st3" cx="30" cy="30" r="15.8"/><linearGradient id="SVGID_5_" gradientUnits="userSpaceOnUse" x1="30" y1="19.809" x2="30" y2="45.612"><stop offset="0" stop-color="#F2F2F2"/><stop offset=".168" stop-color="#EFEFEF"/><stop offset="1" stop-color="#E6E6E6"/></linearGradient><path class="st4" d="M30 44.9c-8.2 0-14.9-6.7-14.9-14.9S21.8 15.1 30 15.1 44.9 21.8 44.9 30 38.2 44.9 30 44.9z"/><circle class="st5" cx="30" cy="30" r="1.8"/><g><path class="st5" d="M35.2 41c-.5.2-1 0-1.2-.4L30.9 34c-.2-.5 0-1 .4-1.2.5-.2 1 0 1.2.4l3.1 6.6c.2.4 0 1-.4 1.2zM24 37.2c-.4-.3-.4-.9-.1-1.3l2.4-2.8c.3-.4.9-.4 1.3-.1.4.3.4.9.1 1.3l-2.4 2.8c-.4.4-1 .4-1.3.1z"/><path class="st6" d="M43.9 31.2c0 .3-.2.4-.5.4l-10-.9c-.3 0-.4-.2-.4-.5s.2-.4.5-.4l10 .9c.3 0 .5.3.4.5z"/></g><linearGradient id="SVGID_6_" gradientUnits="userSpaceOnUse" x1="29.905" y1="21.07" x2="29.905" y2="34.062"><stop offset="0" stop-color="#FFF"/><stop offset="1" stop-color="#FFF" stop-opacity="0"/></linearGradient><ellipse class="st7" cx="29.9" cy="25.2" rx="10.9" ry="8.9"/></svg>